<svg width="71" height="29" viewBox="0 0 71 29" fill="none" xmlns="http://www.w3.org/2000/svg">
<path d="M8.08427 29C8.77844 26.3262 9.47041 23.6546 10.1712 20.9584C9.86267 21.1084 9.57398 21.2383 9.28089 21.3525C8.17903 21.778 7.04192 22.0176 5.85852 21.9885C4.61343 21.9571 3.44546 21.6481 2.40751 20.927C1.20649 20.094 0.474854 18.9362 0.15752 17.503C-0.0981108 16.343 -0.0297956 15.1875 0.269909 14.0454C0.789985 12.0658 1.85217 10.4176 3.31324 9.02919C4.62224 7.7841 6.12958 6.88834 7.8617 6.40016C9.12222 6.04634 10.3982 5.95004 11.6851 6.22997C13.0426 6.52556 14.1841 7.19066 15.0414 8.31707C15.7047 9.19043 16.0573 10.1937 16.1697 11.2842C16.2755 12.3054 16.1388 13.2997 15.8744 14.2828C15.5174 15.6152 15.1736 16.9521 14.8254 18.2868C14.074 21.1801 13.3423 24.0801 12.5644 26.9666C12.2581 28.102 11.467 28.7671 10.3232 28.9798C10.31 28.9821 10.299 28.991 10.2858 28.9978C9.55415 29 8.81811 29 8.08427 29ZM4.122 15.0621C4.12641 15.1382 4.12641 15.2592 4.14183 15.3778C4.28067 16.558 4.88228 17.3754 5.99295 17.7807C6.60999 18.0046 7.24907 18.0181 7.88373 17.8815C9.41311 17.55 10.5745 16.6789 11.4075 15.3487C11.8901 14.5761 12.1479 13.7297 12.095 12.8026C12.0245 11.5866 11.2708 10.6124 10.1271 10.2676C9.49906 10.0772 8.86439 10.0772 8.23192 10.2273C6.83918 10.5587 5.75275 11.3559 4.94398 12.5428C4.43713 13.284 4.14183 14.1059 4.122 15.0621Z" fill="#1B554E"/>
<path d="M51.4311 0.00223951C51.0829 1.34139 50.7369 2.68053 50.3887 4.01744C50.3579 4.04207 50.3248 4.03087 50.2918 4.03087C49.6571 4.03087 49.0203 4.03535 48.3856 4.03087C47.9383 4.02863 47.5372 3.89203 47.2331 3.54269C46.8629 3.11945 46.7968 2.61559 46.9246 2.08486C47.0943 1.38841 47.2838 0.694206 47.4645 0C48.7867 0 50.1089 1.3646e-07 51.4311 0.00223951Z" fill="#1B554E"/>
<path d="M71 6.13599C70.9141 6.36888 70.8656 6.61297 70.8039 6.85483C70.643 7.4617 70.4887 8.07081 70.3323 8.67993C70.3191 8.73143 70.2992 8.76055 70.2375 8.75831C69.3979 8.75607 68.5561 8.75607 67.7165 8.75607C67.7033 8.75607 67.69 8.75159 67.668 8.74935C67.8994 7.85583 68.1308 6.96904 68.3622 6.07104C69.2414 6.07104 70.1207 6.07104 71 6.07104C71 6.0912 71 6.11359 71 6.13599Z" fill="#1B554E"/>
<path d="M22.803 21.993C22.0207 21.9885 20.9629 21.778 19.9867 21.2361C18.4309 20.3739 17.5185 19.0347 17.1902 17.2768C16.9874 16.1907 17.0668 15.1136 17.3466 14.0499C17.8535 12.124 18.8738 10.5094 20.2776 9.13668C21.5116 7.93189 22.9352 7.04286 24.5682 6.50988C25.5158 6.20085 26.4876 6.03961 27.4837 6.0732C28.775 6.11575 29.9782 6.45614 31.0338 7.23992C32.226 8.12672 32.9202 9.33598 33.1802 10.805C33.4204 12.1576 33.2463 13.4744 32.7924 14.7575C32.1335 16.6229 31.0118 18.1592 29.5309 19.4311C28.2704 20.5127 26.849 21.2898 25.2469 21.7108C24.5395 21.8989 23.8167 21.9907 22.803 21.993ZM21.2009 15.0598C21.2053 15.136 21.2053 15.2569 21.2207 15.3756C21.3596 16.5558 21.959 17.3754 23.0674 17.7785C23.6845 18.0046 24.3235 18.0181 24.9582 17.8815C26.492 17.55 27.6555 16.6767 28.4885 15.342C28.969 14.5717 29.2246 13.7274 29.1717 12.8048C29.1012 11.5888 28.3497 10.6147 27.206 10.2676C26.5779 10.0772 25.9433 10.0772 25.3108 10.2273C23.9181 10.5587 22.8316 11.3559 22.0207 12.5405C21.516 13.2818 21.2207 14.1036 21.2009 15.0598Z" fill="#1B554E"/>
<path d="M47.1626 21.9929C47.1516 21.9212 47.2023 21.8966 47.2331 21.8652C49.1239 19.9662 51.0147 18.0672 52.9055 16.1705C53.5908 15.483 54.274 14.7955 54.9594 14.1102C55.0144 14.0543 55.0277 14.0139 54.9902 13.9378C53.7561 11.3558 52.5243 8.77155 51.2902 6.18731C51.2747 6.15372 51.2615 6.12013 51.2483 6.09102C51.2659 6.06414 51.2858 6.07086 51.3034 6.07086C51.9865 6.07086 52.6697 6.06414 53.3528 6.0731C53.9897 6.08206 54.5847 6.25225 55.1114 6.63071C55.4904 6.90391 55.7835 7.25325 55.9797 7.68098C56.4777 8.76932 57.0066 9.84422 57.5179 10.9258C57.5818 11.0602 57.6457 11.1923 57.7294 11.367C57.9983 11.0804 58.2473 10.8072 58.5051 10.5451C59.4131 9.627 60.332 8.72005 61.2333 7.79295C61.9892 7.01812 62.8597 6.45603 63.9064 6.19179C64.2172 6.11341 64.5323 6.06862 64.854 6.06862C65.5151 6.06638 66.1763 6.06862 66.8374 6.06862C66.8594 6.06862 66.8792 6.06862 66.9167 6.06862C66.725 6.26569 66.5465 6.44932 66.3658 6.63071C63.9329 9.07163 61.5022 11.5126 59.0693 13.9535C59.0142 14.0095 59.0054 14.052 59.0406 14.1259C60.2681 16.6945 61.4934 19.2675 62.7208 21.8383C62.7429 21.8831 62.7803 21.9257 62.7451 21.9884C62.723 21.9906 62.6966 21.9929 62.6723 21.9929C62.0112 21.9929 61.3501 22.0041 60.689 21.9906C59.8406 21.9727 59.0913 21.6973 58.4985 21.0546C58.2936 20.8329 58.1415 20.5731 58.0137 20.2999C57.4584 19.122 56.8986 17.9485 56.3411 16.7729C56.3367 16.7639 56.3279 16.7549 56.3212 16.7438C56.2838 16.746 56.2684 16.7773 56.2463 16.7997C55.1312 17.9194 54.0074 19.0302 52.9033 20.161C52.403 20.6739 51.8675 21.1285 51.2307 21.4554C50.5255 21.816 49.7806 22.0085 48.9873 21.9973C48.3791 21.9839 47.773 21.9929 47.1626 21.9929Z" fill="#1B554E"/>
<path d="M32.3866 21.9884C32.4681 21.6727 32.5453 21.3681 32.6246 21.0613C32.8384 20.2372 33.0543 19.4131 33.2681 18.589C33.4841 17.7582 33.6978 16.9252 33.9138 16.0944C34.2818 14.6723 34.652 13.2503 35.0222 11.8283C35.1809 11.217 35.3286 10.6012 35.5026 9.99428C35.7759 9.04478 36.3048 8.2498 37.0166 7.58247C37.7747 6.87034 38.6517 6.38216 39.6721 6.17613C39.8748 6.13583 40.0775 6.10895 40.2825 6.1C41.6576 6.04177 43.0327 6.0888 44.41 6.07536C44.4166 6.07536 44.4233 6.0776 44.4475 6.08432C44.0993 7.42123 43.7533 8.75814 43.4073 10.0928C43.3677 10.1152 43.3258 10.104 43.2883 10.104C42.7088 10.104 42.127 10.104 41.5474 10.104C40.4412 10.1085 39.661 10.6594 39.1167 11.6022C38.9426 11.9022 38.8831 12.2426 38.7972 12.574C38.4336 13.9669 38.07 15.3598 37.7086 16.7527C37.3207 18.2509 36.9329 19.749 36.5472 21.2472C36.4833 21.4957 36.4172 21.7421 36.3511 21.9906C35.0311 21.9884 33.7176 21.9884 32.3866 21.9884Z" fill="#1B554E"/>
<path d="M45.8912 6.0732C46.6008 6.0732 47.2994 6.05305 47.9979 6.07768C48.9125 6.10903 49.5207 6.8749 49.3885 7.79529C49.3246 8.24988 49.1791 8.68656 49.0645 9.12772C48.1081 12.8205 47.1473 16.5132 46.1887 20.2059C46.041 20.7703 45.8956 21.3368 45.7479 21.9012C45.7413 21.9303 45.7303 21.9571 45.7237 21.9863C44.4015 21.9863 43.0836 21.9863 41.7592 21.9863C43.1365 16.6812 44.5117 11.3805 45.8912 6.0732Z" fill="#1B554E"/>
</svg>
