<svg width="22" height="12" viewBox="0 0 22 12" fill="none" xmlns="http://www.w3.org/2000/svg">
<path d="M12.0789 11.454C12.0789 11.454 12.476 11.4154 12.6793 11.2239C12.8655 11.0485 12.859 10.7175 12.859 10.7175C12.859 10.7175 12.8343 9.17184 13.6531 8.94362C14.1408 8.80799 14.7122 9.38213 15.3307 10.0036C15.7357 10.4106 16.1609 10.8378 16.596 11.0994C17.4267 11.5993 18.0573 11.4899 18.0573 11.4899L20.9959 11.454C20.9959 11.454 22.5325 11.371 21.804 10.312C21.7994 10.3053 21.793 10.2951 21.7843 10.2813C21.6797 10.1142 21.2442 9.41867 19.6197 8.09676L19.5689 8.05546C18.8238 7.44989 18.435 7.13389 18.3941 6.78534C18.3368 6.29759 18.9607 5.74608 20.2427 4.24816C21.5942 2.66949 22.1343 1.70569 21.9654 1.29358C21.8051 0.899384 20.8108 1.00406 20.8108 1.00406L17.5031 1.02198C17.5031 1.02198 17.2578 0.992747 17.076 1.088C16.8984 1.18136 16.7833 1.3992 16.7833 1.3992C16.7833 1.3992 16.2603 2.62045 15.562 3.6597C14.0889 5.85135 13.5003 5.96735 13.2593 5.83155C12.7893 5.56512 12.8117 4.84931 12.8312 4.22423C12.8349 4.10369 12.8386 3.98652 12.8386 3.8766C12.8386 3.38746 12.8581 2.96399 12.8749 2.59909C12.9311 1.37896 12.9571 0.81362 12.123 0.637216C11.7636 0.560829 11.4989 0.510848 10.5789 0.502359C9.39855 0.491986 8.4 0.506132 7.83401 0.748497C7.4574 0.909759 7.16688 1.27 7.34442 1.29075C7.56285 1.31621 8.05782 1.40769 8.32037 1.72078C8.65932 2.12535 8.64748 3.03257 8.64748 3.03257C8.64748 3.03257 8.84224 5.53354 8.19232 5.84381C7.74685 6.05694 7.13567 5.62219 5.82185 3.63329C5.14934 2.6148 4.64146 1.48879 4.64146 1.48879C4.64146 1.48879 4.54354 1.27849 4.36815 1.16533C4.15617 1.02858 3.86027 0.986146 3.86027 0.986146L0.717209 1.00406C0.717209 1.00406 0.244836 1.01538 0.0715965 1.1955C-0.0822744 1.35488 0.0597607 1.68589 0.0597607 1.68589C0.0597607 1.68589 2.52062 6.73216 5.30751 9.27557C7.86306 11.6068 10.764 11.454 10.764 11.454H12.0789Z" fill="white"/>
</svg>
