<svg width="22" height="22" viewBox="0 0 22 22" fill="none" xmlns="http://www.w3.org/2000/svg">
<path fill-rule="evenodd" clip-rule="evenodd" d="M11.0461 21.8109H11.0415C9.20823 21.8103 7.40683 21.3525 5.80688 20.484L0 22L1.55402 16.3509C0.595424 14.6976 0.0910169 12.8222 0.0918385 10.9009C0.0942418 4.89018 5.00821 0 11.0459 0C13.9763 0.00125885 16.7266 1.13656 18.7947 3.19719C20.8628 5.25771 22.0012 7.99664 22 10.9095C21.9976 16.9188 17.0856 21.8085 11.0461 21.8109ZM6.40998 18.7067L6.07752 18.5104L2.63163 19.41L3.55139 16.0663L3.33492 15.7235C2.42354 14.2809 1.94219 12.6135 1.94289 10.9014C1.94489 5.90561 6.02921 1.84121 11.0512 1.84121C13.4831 1.84205 15.769 2.78573 17.488 4.49844C19.2069 6.21115 20.153 8.48763 20.1521 10.9088C20.1501 15.9049 16.0658 19.9697 11.0476 19.9697H11.044C9.41022 19.9691 7.80785 19.5323 6.40998 18.7067Z" fill="white"/>
<path d="M16.5681 13.5019C16.513 13.4104 16.3841 13.3484 16.1932 13.2566C16.1469 13.2343 16.097 13.2103 16.0436 13.1837C15.7699 13.0474 14.4242 12.3885 14.1733 12.2975C13.9224 12.2066 13.7399 12.1612 13.5575 12.4338C13.375 12.7065 12.8505 13.3201 12.6908 13.5019C12.5311 13.6836 12.3715 13.7064 12.0979 13.57C12.0532 13.5478 11.9922 13.5215 11.917 13.489C11.5316 13.3226 10.7715 12.9945 9.8968 12.218C9.08313 11.4957 8.53382 10.6038 8.37416 10.3311C8.21451 10.0584 8.35714 9.91099 8.49416 9.77516C8.57615 9.69387 8.6703 9.57976 8.76447 9.46563C8.81173 9.40835 8.859 9.35106 8.90473 9.29792C9.02103 9.16278 9.07144 9.06036 9.13996 8.92114C9.15206 8.89655 9.16473 8.87081 9.17842 8.84355C9.26965 8.66167 9.22405 8.50266 9.15561 8.36631C9.10982 8.27507 8.8496 7.64458 8.61408 7.07394C8.49762 6.79176 8.3872 6.52422 8.31173 6.34376C8.11557 5.87482 7.91672 5.87598 7.75722 5.87691C7.73606 5.87703 7.71559 5.87715 7.69591 5.87617C7.53644 5.8682 7.35378 5.86652 7.17133 5.86652C6.98888 5.86652 6.69234 5.93469 6.44146 6.2074C6.42537 6.22489 6.40741 6.24396 6.38788 6.2647C6.10282 6.56742 5.48352 7.22508 5.48352 8.4798C5.48352 9.81359 6.45407 11.1023 6.59891 11.2947L6.60112 11.2976C6.61008 11.3095 6.62613 11.3324 6.64909 11.3652C6.97682 11.833 8.71085 14.308 11.2768 15.4106C11.9298 15.6913 12.4396 15.8589 12.8371 15.9844C13.4927 16.1918 14.0895 16.1625 14.561 16.0924C15.0869 16.0142 16.1804 15.4335 16.4085 14.7972C16.6365 14.1608 16.6365 13.6154 16.5681 13.5019Z" fill="white"/>
</svg>
