<svg width="1314" height="566" viewBox="0 0 1314 566" fill="none" xmlns="http://www.w3.org/2000/svg">
<g opacity="0.05">
<path fill-rule="evenodd" clip-rule="evenodd" d="M168.633 123.657C181.284 145.975 185.998 196.124 181.792 258.947L180.72 278.313C179.271 304.283 178.174 323.966 178.486 325.129C178.871 326.568 186.253 329.218 194.462 331.13L210.148 334.125L208.353 292.962C207.359 270.092 207.843 235.515 209.183 215.619C210.043 195.851 209.654 173.333 207.598 165.658C203.742 151.267 209.415 145.635 217.547 156.822C228.141 171.466 232.7 205.718 229.706 248.167C227.956 272.285 227.962 293.362 229.783 294.418C232.083 295.344 236.988 286.832 241.247 275.922C245.986 264.882 258.304 239.99 269.034 220.661C285.715 190.999 290.911 185.494 305.755 181.517C321.075 177.412 323.852 178.21 326.294 187.324C327.965 193.56 325.878 204.915 322.41 213.043L315.57 227.729L314.495 214.135C313.196 201.631 312.11 201.406 304.299 208.641C293.65 218.693 258.205 276.005 255.766 287.97C254.179 293.535 258.664 302.617 269.093 314.733C284.42 331.705 285.32 335.063 295.125 394.646C305.833 457.585 314.137 479.012 332.042 492.209C338.98 497.034 339.108 497.513 332.499 497.742C328.283 497.328 318.054 489.787 310.565 480.997C298.794 467.699 291.643 450.592 273.918 392.102C261.335 352.8 249.815 319.385 247.862 317.85C239.49 313.409 222.893 375.954 227.649 393.702C229.32 399.939 229.113 408.734 227.266 413.343C225.332 419.517 222.28 410.051 216.74 381.717L209.424 341.003L194.733 339.798C186.78 338.845 178.993 340.417 177.589 342.85C174.216 349.409 170.094 424.034 171.338 461.233C172.643 515.896 190.73 560.407 212.413 562.823C216.151 563.364 217.017 564.674 214.141 565.444C211.398 566.693 202.674 562.863 194.173 557.943C181.292 550.082 177.926 543.272 167.491 510.078C157.574 478.803 155.304 458.845 154.585 410.196C154.241 376.356 152.787 347.953 151.572 347.251C149.881 346.676 144.698 359.889 139.106 377.325C112.425 461.595 76.3669 497.478 37.3135 478.123C17.9136 468.925 5.48562 445.519 2.01255 411.489C-6.87546 328.524 25.973 246.2 72.8918 233.629C107.362 224.392 116.935 256.275 100.28 322.434C96.3458 338.399 93.3345 352.058 93.5919 353.018C93.7204 353.498 102.34 351.188 112.136 347.534C129.337 340.869 130.867 338.917 135.065 310.542C142.336 264.893 146.657 194.841 144.618 160.426C143.729 143.698 144.274 126.586 145.769 122.585C151.337 110.811 161.682 111.125 168.633 123.657ZM851.465 78.9948C853.521 86.6698 855.771 112.289 856.416 135.766C857.062 159.243 857.894 179.586 858.279 181.025C858.665 182.464 864.456 169.602 870.911 153.476C882.9 123.528 900.037 99.3999 911.529 96.3208C919.187 94.2687 922.823 109.747 922.944 144.674C922.971 160.091 923.918 173.206 925.003 173.429C926.221 174.13 931.181 162.005 936.201 146.264C946.458 113.696 976.874 64.4156 991.643 56.3444C1009.51 46.4165 1020.24 48.1676 1022.75 61.3762C1023.6 68.3486 1017.03 112.78 1007.28 160.638C989.095 249.828 986.554 276.731 994.137 305.033C996.579 314.146 996.813 320.768 994.861 319.233C993.041 318.179 987.876 304.653 984.114 288.694C971.481 239.637 979.551 156.757 1002.02 93.1519C1009.49 73.1563 1013.64 56.1051 1011.82 55.0506C1006.96 52.2393 970.74 120.043 947.999 174.979C929.742 217.917 921.745 228.286 912.822 219.881C910.264 217.994 910.539 192.214 912.917 162.785C919.735 77.1539 907.558 89.1588 883.365 192.298C875.628 224.705 867.083 252.187 863.734 253.084C854.634 255.522 842.697 239.699 842.193 224.41C841.574 216.349 842.63 180.076 843.91 142.715C845.247 101.741 843.756 71.2924 839.785 64.1304C835.428 55.5297 835.652 54.4418 840.894 58.6911C844.318 61.8877 849.28 70.8403 851.465 78.9948ZM1056.99 3.36169C1065.87 9.72072 1067.21 24.2728 1063.27 95.7636C1060.27 151.581 1062.41 171.059 1071.96 174.154C1079.82 176.676 1093.98 147.176 1095.41 125.711C1095.84 115.828 1093.3 100.572 1089.9 91.7134C1085.63 81.5462 1085.53 75.4043 1089.36 74.3782C1092.71 73.48 1104.98 59.9102 1117.69 44.163C1146.05 8.28643 1156 -0.547572 1166 0.372155C1178.65 1.61104 1178.66 9.31949 1170.11 71.2487C1161.11 135.355 1160.97 161.616 1169.83 173.637C1180.3 187.799 1179.63 191.061 1167.14 184.641C1139.71 170.396 1133.41 125.812 1150.23 62.1804C1155.75 40.65 1158.56 22.4165 1157.35 21.7139C1155.53 20.6577 1143.92 30.9656 1131.17 44.6658C1118.42 58.3642 1105.15 70.1453 1102.28 70.9148C1098.45 71.9409 1099.68 80.352 1106.48 98.0682C1118.31 128.829 1116.08 166.446 1102.28 181.969C1088.83 196.885 1067.69 198.434 1054.96 185.394C1041.49 171.522 1040.81 145.999 1051.78 77.7635C1059.62 30.4189 1057.11 3.84127 1045.42 2.3459C1043.47 1.94386 1042.24 1.55458 1041.79 1.16671C1041.24 0.692244 1041.85 0.218228 1043.69 -0.275083C1046.44 -1.52417 1052.6 0.421569 1056.99 3.36169ZM801.018 82.2299C807.476 87.1836 807.618 95.3716 802.438 129.664C789.034 209.862 791.668 257.998 811.771 287.059C821.28 301.478 822.051 304.357 816.236 301.801C797.573 293.434 775.174 228.999 776.897 189.464C777.178 184.76 773.744 194.936 768.985 211.636C751.186 281.185 737.141 303.457 714.683 298.164C706.953 296.121 702.888 290.528 699.255 275.048C694.371 256.821 694.703 227.425 699.097 238.074C715.509 276.349 718.932 279.545 727.596 265.912C737.437 250.937 763.488 171.976 771.026 134.996L776.79 106.716L762.908 110.436C745.192 115.183 722.068 113.153 720.268 106.437C719.497 103.559 724.03 101.317 730.64 101.088C736.641 100.508 748.961 96.6926 757.415 91.8574C780.989 78.3426 792.26 76.3505 801.018 82.2299ZM1292.95 -42.8995C1294.9 -41.3664 1294.85 -16.6736 1292.69 11.6679C1288.55 70.8759 1294.57 120.163 1307.68 134.642C1311.82 139.485 1313.88 141.89 1313.61 142.186C1313.35 142.477 1310.82 140.711 1305.8 137.204C1296.92 130.845 1293.39 121.506 1284.38 80.2204L1273.53 30.1699L1262.38 46.0097C1256.52 54.7786 1246.83 64.5735 1240.51 67.8078C1234.68 70.9161 1230.82 77.6027 1231.98 81.9206C1234.94 92.9527 1225.03 145.993 1219.76 147.404C1216.89 148.174 1212.11 136.087 1208.48 120.608C1204.49 105.737 1198.17 87.8952 1193.72 80.8593C1187.16 69.7663 1187.38 68.6794 1198.87 65.6003C1209.88 62.6499 1211.03 59.2568 1211.04 32.5179C1211.78 -22.1783 1213.41 -25.6992 1221.39 11.7501C1225.09 31.3237 1230.29 46.8967 1232.69 46.255C1235.08 45.6142 1246.99 24.9434 1259.91 0.399863C1282.83 -44.3005 1286.71 -48.9401 1292.95 -42.8995ZM56.7321 251.841C17.7689 286.445 -0.338463 400.807 26.435 447.103C52.0855 491.131 95.558 459.944 119.09 381.146L126.36 356.576L104.501 365.004C89.6946 371.029 79.6168 379.383 71.5253 391.321C63.085 403.865 62.2561 404.601 67.7331 394.393L75.0501 379.579L56.053 379.529C43.1814 379.378 35.1945 376.376 32.5666 370.398C29.6813 363.459 30.0292 362.85 34.5386 366.27C38.5675 369.818 48.5299 368.691 63.5934 363.627L86.6673 355.902L94.9999 316.137C104.161 275.636 101.526 248.578 88.1685 240.847C78.45 235.225 73.7918 236.987 56.7321 251.841ZM155.03 331.414C151.397 337.016 150.791 336.664 151.864 329.178C152.013 323.997 154.245 320.828 156.065 321.883C157.888 322.936 157.479 327.16 155.03 331.414ZM224.708 313.772C223.74 327.399 225.469 330.022 228.642 318.888C230.232 313.322 230.253 307.66 228.561 307.085C227.937 306.537 227.229 306.895 226.57 307.916C225.806 309.102 225.115 311.18 224.708 313.772Z" fill="#239385"/>
<path fill-rule="evenodd" clip-rule="evenodd" d="M678.094 125.963C682.301 63.1401 677.586 12.9909 664.935 -9.32719C657.984 -21.8588 647.64 -22.173 642.071 -10.3988C640.576 -6.39829 640.031 10.7138 640.92 27.4417C642.96 61.8573 638.638 131.909 631.367 177.558C627.169 205.933 625.64 207.885 608.438 214.55C598.642 218.205 590.023 220.514 589.895 220.035C589.637 219.074 592.648 205.415 596.583 189.45C613.238 123.292 603.665 91.4085 569.194 100.645C522.276 113.217 489.428 195.54 498.316 278.505C501.789 312.535 514.217 335.941 533.617 345.139C572.67 364.494 608.727 328.611 635.409 244.341C641.001 226.905 646.184 213.692 647.875 214.267C649.089 214.97 650.543 243.372 650.887 277.212C651.607 325.861 653.876 345.819 663.793 377.094C674.229 410.288 677.594 417.098 690.476 424.959C698.977 429.879 707.7 433.71 710.444 432.46C713.319 431.69 712.453 430.38 708.715 429.84C687.032 427.423 668.945 382.912 667.641 328.249C666.397 291.05 670.519 216.425 673.891 209.866C675.295 207.434 678.493 206.45 686.446 207.403C686.446 207.403 705.229 211.689 705.974 208.467C706.72 205.246 692.726 199.936 688.654 199.099C684.581 198.263 675.174 193.584 674.788 192.145C674.477 190.982 675.573 171.299 677.022 145.329L678.094 125.963ZM553.035 118.857C514.072 153.461 495.965 267.823 522.738 314.119C548.388 358.147 591.861 326.96 615.393 248.162L622.663 223.592L600.803 232.02C585.997 238.045 575.919 246.399 567.828 258.337C559.388 270.881 558.559 271.617 564.036 261.41L571.353 246.595L552.356 246.545C539.484 246.394 531.497 243.392 528.87 237.414C525.984 230.475 526.332 229.866 530.842 233.286C534.87 236.834 544.833 235.707 559.896 230.643L582.97 222.918L591.302 183.153C600.464 142.652 597.829 115.594 584.471 107.863C574.752 102.241 570.094 104.004 553.035 118.857ZM651.332 198.43C647.699 204.032 647.094 203.68 648.166 196.195C648.315 191.013 650.548 187.844 652.368 188.899C654.191 189.952 653.782 194.176 651.332 198.43Z" fill="#239385"/>
</g>
</svg>
