<svg width="1268" height="614" viewBox="0 0 1268 614" fill="none" xmlns="http://www.w3.org/2000/svg">
<g opacity="0.05">
<path fill-rule="evenodd" clip-rule="evenodd" d="M116.961 169.589C129.679 192.028 134.418 242.448 130.19 305.61L129.112 325.08C127.655 351.19 126.553 370.98 126.866 372.149C127.254 373.595 134.674 376.26 142.927 378.182L158.696 381.194L156.891 339.808C155.892 316.815 156.379 282.051 157.726 262.048C158.59 242.173 158.199 219.534 156.132 211.818C152.256 197.349 157.959 191.687 166.133 202.934C176.784 217.656 181.367 252.094 178.357 294.771C176.598 319.02 176.604 340.21 178.434 341.272C180.746 342.203 185.677 333.645 189.959 322.676C194.723 311.577 207.105 286.55 217.892 267.117C234.661 237.295 239.885 231.761 254.807 227.762C270.208 223.635 273 224.437 275.455 233.6C277.134 239.87 275.036 251.287 271.55 259.458L264.674 274.224L263.593 260.556C262.287 247.985 261.195 247.759 253.344 255.033C242.638 265.138 207.006 322.759 204.554 334.789C202.958 340.385 207.468 349.516 217.951 361.697C233.359 378.76 234.264 382.137 244.12 442.041C254.885 505.319 263.234 526.862 281.232 540.13C288.207 544.981 288.336 545.463 281.691 545.693C277.454 545.276 267.171 537.695 259.642 528.858C247.809 515.488 240.62 498.288 222.802 439.483C210.153 399.969 198.571 366.373 196.609 364.83C188.193 360.366 171.508 423.248 176.289 441.092C177.969 447.362 177.761 456.205 175.904 460.838C173.959 467.046 170.892 457.529 165.323 429.042L157.968 388.109L143.199 386.897C135.204 385.938 127.376 387.52 125.965 389.965C122.574 396.56 118.431 471.587 119.681 508.987C120.993 563.944 139.175 608.696 160.972 611.125C164.73 611.669 165.601 612.986 162.71 613.76C159.952 615.016 151.182 611.165 142.637 606.218C129.687 598.315 126.304 591.468 115.814 558.095C105.844 526.652 103.563 506.586 102.839 457.674C102.493 423.652 101.032 395.096 99.811 394.39C98.1108 393.812 92.9006 407.096 87.279 424.626C60.4568 509.351 24.209 545.428 -15.0503 525.968C-34.5526 516.72 -47.0461 493.188 -50.5375 458.975C-59.4723 375.562 -26.4507 292.794 20.7156 280.155C55.3677 270.869 64.991 302.924 48.2485 369.439C44.2933 385.49 41.2661 399.222 41.5249 400.189C41.6541 400.671 50.3189 398.349 60.1667 394.674C77.4589 387.973 78.9962 386.011 83.2166 357.483C90.5259 311.588 94.8699 241.158 92.8199 206.557C91.926 189.739 92.4739 172.534 93.9768 168.512C99.5746 156.674 109.974 156.99 116.961 169.589ZM803.395 124.687C805.462 132.403 807.723 158.161 808.372 181.764C809.021 205.368 809.857 225.821 810.245 227.268C810.632 228.714 816.455 215.783 822.943 199.57C834.995 169.46 852.223 145.202 863.775 142.106C871.474 140.043 875.129 155.604 875.251 190.721C875.278 206.221 876.229 219.406 877.321 219.63C878.545 220.335 883.531 208.145 888.578 192.319C898.889 159.575 929.465 110.029 944.312 101.914C962.274 91.9327 973.06 93.6932 975.587 106.973C976.433 113.983 969.832 158.655 960.027 206.77C941.75 296.441 939.196 323.489 946.82 351.944C949.275 361.107 949.509 367.764 947.547 366.221C945.717 365.161 940.525 351.562 936.744 335.517C924.044 286.196 932.156 202.868 954.744 138.92C962.253 118.817 966.429 101.674 964.6 100.613C959.713 97.7869 923.298 165.957 900.438 221.189C882.084 264.358 874.045 274.783 865.075 266.333C862.504 264.436 862.78 238.517 865.171 208.929C872.025 122.836 859.783 134.906 835.463 238.601C827.685 271.183 819.095 298.813 815.728 299.715C806.581 302.166 794.58 286.258 794.074 270.886C793.452 262.782 794.514 226.314 795.8 188.751C797.144 147.556 795.645 116.943 791.653 109.742C787.273 101.095 787.498 100.001 792.768 104.274C796.21 107.487 801.198 116.488 803.395 124.687ZM1010 48.6457C1018.93 55.039 1020.27 69.6695 1016.32 141.546C1013.3 197.665 1015.45 217.248 1025.05 220.359C1032.95 222.895 1047.19 193.235 1048.63 171.655C1049.06 161.719 1046.5 146.381 1043.08 137.474C1038.8 127.252 1038.69 121.077 1042.54 120.045C1045.91 119.142 1058.24 105.499 1071.03 89.6671C1099.54 53.597 1109.54 44.7153 1119.59 45.64C1132.3 46.8856 1132.31 54.6356 1123.72 116.899C1114.68 181.351 1114.53 207.754 1123.44 219.839C1133.96 234.078 1133.29 237.358 1120.73 230.903C1093.16 216.581 1086.83 171.756 1103.74 107.782C1109.28 86.1351 1112.11 67.8033 1110.89 67.0968C1109.06 66.035 1097.39 76.3985 1084.58 90.1726C1071.76 103.945 1058.42 115.79 1055.53 116.563C1051.68 117.595 1052.92 126.051 1059.75 143.863C1071.65 174.79 1069.4 212.61 1055.53 228.216C1042.01 243.213 1020.76 244.77 1007.96 231.659C994.424 217.713 993.737 192.052 1004.76 123.449C1012.64 75.8488 1010.13 49.1278 998.375 47.6244C996.408 47.2202 995.177 46.8288 994.725 46.4388C994.174 45.9618 994.787 45.4852 996.638 44.9893C999.396 43.7334 1005.59 45.6897 1010 48.6457ZM752.682 127.939C759.174 132.92 759.316 141.152 754.109 175.629C740.634 256.259 743.282 304.656 763.491 333.874C773.05 348.37 773.826 351.265 767.98 348.695C749.219 340.282 726.702 275.5 728.434 235.751C728.716 231.023 725.264 241.254 720.479 258.043C702.587 327.968 688.468 350.359 665.891 345.038C658.121 342.984 654.034 337.361 650.382 321.797C645.472 303.472 645.806 273.918 650.223 284.624C666.722 323.105 670.163 326.319 678.872 312.612C688.765 297.556 714.954 218.17 722.531 180.99L728.326 152.557L714.37 156.297C696.561 161.07 673.315 159.029 671.506 152.277C670.731 149.384 675.288 147.129 681.933 146.899C687.965 146.316 700.35 142.48 708.849 137.619C732.547 124.031 743.878 122.028 752.682 127.939ZM1247.21 2.13495C1249.17 3.6763 1249.12 28.5023 1246.95 56.9967C1242.78 116.524 1248.83 166.077 1262.02 180.634C1266.18 185.503 1268.24 187.921 1267.98 188.219C1267.71 188.511 1265.17 186.736 1260.13 183.21C1251.2 176.816 1247.65 167.428 1238.59 125.919L1227.69 75.5985L1216.48 91.5237C1210.59 100.34 1200.84 110.188 1194.5 113.439C1188.63 116.564 1184.75 123.287 1185.92 127.628C1188.89 138.72 1178.93 192.046 1173.63 193.465C1170.75 194.239 1165.94 182.086 1162.29 166.524C1158.29 151.574 1151.93 133.635 1147.46 126.561C1140.86 115.408 1141.08 114.316 1152.63 111.22C1163.7 108.254 1164.85 104.842 1164.87 77.9591C1165.61 22.9679 1167.25 19.428 1175.27 57.0793C1178.99 76.7585 1184.22 92.4155 1186.63 91.7703C1189.03 91.1261 1201 70.3438 1214 45.6678C1237.03 0.726343 1240.94 -3.93828 1247.21 2.13495ZM4.4707 298.465C-34.698 333.256 -52.9009 448.235 -25.9862 494.781C-0.200459 539.046 43.5013 507.691 67.1577 428.468L74.4661 403.766L52.4911 412.238C37.607 418.296 27.476 426.696 19.3419 438.698C10.857 451.309 10.0238 452.049 15.5297 441.787L22.8853 426.892L3.78799 426.842C-9.15155 426.69 -17.1805 423.672 -19.8223 417.662C-22.7228 410.686 -22.373 410.073 -17.8399 413.511C-13.7897 417.079 -3.77482 415.945 11.3681 410.854L34.5638 403.088L42.9403 363.108C52.1499 322.389 49.5012 295.185 36.0728 287.412C26.3031 281.76 21.6203 283.532 4.4707 298.465ZM103.287 378.468C99.6346 384.099 99.026 383.746 100.104 376.22C100.254 371.01 102.498 367.825 104.328 368.885C106.16 369.944 105.749 374.19 103.287 378.468ZM173.332 360.73C172.36 374.431 174.098 377.068 177.287 365.874C178.886 360.278 178.906 354.586 177.206 354.008C176.579 353.457 175.866 353.816 175.205 354.843C174.436 356.035 173.741 358.124 173.332 360.73Z" fill="#239385"/>
<path fill-rule="evenodd" clip-rule="evenodd" d="M629.11 171.909C633.338 108.746 628.599 58.3268 615.881 35.8883C608.894 23.2891 598.494 22.9733 592.897 34.8109C591.394 38.833 590.846 56.0375 591.74 72.8555C593.79 107.457 589.446 177.887 582.136 223.782C577.916 252.31 576.379 254.272 559.087 260.973C549.239 264.647 540.574 266.969 540.445 266.487C540.186 265.521 543.213 251.789 547.168 235.738C563.911 169.222 554.288 137.167 519.636 146.453C472.469 159.093 439.448 241.861 448.383 325.273C451.874 359.487 464.368 383.019 483.87 392.266C523.129 411.726 559.377 375.649 586.199 290.925C591.82 273.395 597.031 260.111 598.731 260.689C599.952 261.395 601.413 289.951 601.759 323.973C602.482 372.885 604.764 392.951 614.733 424.394C625.224 457.767 628.607 464.614 641.557 472.517C650.102 477.464 658.872 481.315 661.63 480.059C664.52 479.284 663.65 477.967 659.892 477.424C638.095 474.995 619.912 430.243 618.601 375.286C617.35 337.886 621.494 262.859 624.885 256.264C626.296 253.818 629.511 252.829 637.505 253.787C637.505 253.787 656.387 258.096 657.137 254.858C657.886 251.619 643.819 246.28 639.725 245.439C635.63 244.598 626.174 239.894 625.786 238.448C625.473 237.278 626.575 217.489 628.032 191.379L629.11 171.909ZM503.391 164.764C464.222 199.555 446.02 314.534 472.934 361.08C498.72 405.344 542.421 373.99 566.078 294.767L573.386 270.064L551.411 278.537C536.527 284.595 526.396 292.994 518.262 304.997C509.777 317.608 508.944 318.348 514.45 308.085L521.805 293.191L502.708 293.141C489.768 292.989 481.74 289.971 479.098 283.961C476.197 276.984 476.547 276.372 481.08 279.81C485.131 283.378 495.145 282.244 510.288 277.153L533.484 269.386L541.86 229.407C551.07 188.688 548.421 161.484 534.993 153.711C525.223 148.059 520.54 149.83 503.391 164.764ZM602.207 244.767C598.554 250.398 597.946 250.045 599.024 242.519C599.173 237.309 601.418 234.124 603.247 235.184C605.08 236.243 604.669 240.489 602.207 244.767Z" fill="#239385"/>
</g>
</svg>
