<svg width="32" height="30" viewBox="0 0 32 30" fill="none" xmlns="http://www.w3.org/2000/svg">
<path d="M15.9797 29C8.1669 29 1.83337 22.732 1.83337 15C1.83337 7.26801 8.1669 1 15.9797 1C21.9165 1 26.9992 4.6193 29.0978 9.75M3.60167 20.25H7.72768C9.35535 20.25 10.6748 18.9442 10.6748 17.3333V13.5417C10.6748 11.9308 11.9943 10.625 13.622 10.625H16.5691C18.1968 10.625 19.5163 9.31917 19.5163 7.70834V2.75M25.1748 20.6V20.4947M30.8334 20.4783C30.8334 24.1304 25.1748 29 25.1748 29C25.1748 29 19.5163 24.1304 19.5163 20.4783C19.5163 17.4527 22.0497 15 25.1748 15C28.3 15 30.8334 17.4527 30.8334 20.4783Z" stroke="black" stroke-width="2" stroke-linecap="round" stroke-linejoin="round"/>
</svg>
