<svg width="160" height="53" viewBox="0 0 160 53" fill="none" xmlns="http://www.w3.org/2000/svg">
<path fill-rule="evenodd" clip-rule="evenodd" d="M27.7927 1.50314C28.5471 4.4191 27.5607 10.2506 25.1816 17.2486L24.4735 19.4126C23.5228 22.3143 22.8025 24.5135 22.8025 24.6549C22.8025 24.8298 23.5568 25.3547 24.4272 25.8211L26.1102 26.6376L27.1544 21.914C27.735 19.2898 28.8374 15.3825 29.5917 13.1666C30.2879 10.9504 30.9262 8.38451 30.9262 7.45146C30.9262 5.70196 31.7384 5.23555 32.3189 6.75162C33.0733 8.73453 32.551 12.7582 30.9262 17.482C29.9976 20.1645 29.3597 22.5554 29.5335 22.7305C29.7656 22.9054 30.5782 22.0889 31.3903 20.981C32.2607 19.8728 34.4078 17.4237 36.2068 15.5574C38.9917 12.6999 39.7461 12.2335 41.5451 12.2335C43.4019 12.2335 43.6917 12.4084 43.6917 13.5164C43.6917 14.2745 43.1116 15.4991 42.4733 16.3155L41.2548 17.7735L41.5451 16.1989C41.7771 14.7412 41.6611 14.6826 40.5587 15.2659C39.05 16.0823 33.3053 21.5057 32.667 22.7888C32.3189 23.3718 32.551 24.5383 33.3631 26.2295C34.582 28.6203 34.582 29.0286 33.8854 36.0849C33.1893 43.5493 33.4792 46.232 35.1039 48.273C35.7422 49.0312 35.7422 49.0895 34.9879 48.9146C34.5238 48.7395 33.5956 47.5732 33.0151 46.3486C32.0869 44.4826 31.7966 42.3247 31.5646 35.1518C31.3325 30.3115 31.0422 26.1712 30.868 25.9377C30.0558 25.1796 26.284 31.7695 26.284 33.9271C26.284 34.6852 25.9942 35.6766 25.6457 36.1432C25.2398 36.7847 25.1816 35.6183 25.4136 32.2361L25.8199 27.3957L24.1952 26.8125C23.3248 26.4627 22.3966 26.4044 22.1641 26.6376C21.584 27.2791 18.8568 35.6183 17.8704 39.8754C16.3617 46.1152 17.0583 51.7137 19.437 52.6468C19.8432 52.8217 19.9015 52.9966 19.553 52.9966C19.2049 53.0549 18.3345 52.3553 17.5224 51.5388C16.3039 50.2558 16.1297 49.381 15.9554 45.2988C15.7816 41.45 16.1297 39.1173 17.5224 33.5773C18.5088 29.7285 19.2049 26.4627 19.0889 26.3461C18.9151 26.2295 17.9286 27.5706 16.768 29.3784C11.1976 38.1259 6.03305 41.1002 2.20344 37.7178C0.288423 36.0849 -0.407725 33.0523 0.230614 29.0869C1.73934 19.4064 7.94811 11.0671 13.6345 11.0671C17.8122 11.0671 17.9286 14.9744 14.0408 21.9723C13.1122 23.6635 12.3578 25.1213 12.3578 25.2381C12.3578 25.2964 13.4025 25.2964 14.6209 25.1796C16.768 24.9464 17 24.7715 18.3345 21.6806C20.5398 16.7239 23.151 8.90944 23.9631 4.94382C24.3694 3.01942 24.9495 1.09502 25.2398 0.686692C26.2262 -0.479566 27.3865 -0.129539 27.7927 1.50314ZM106.359 17.1903C106.359 18.1233 105.837 21.0976 105.199 23.7801C104.561 26.4627 104.038 28.7954 104.038 28.9703C104.038 29.1452 105.083 27.8624 106.301 26.2295C108.564 23.1969 111.233 20.981 112.626 20.981C113.554 20.981 113.497 22.8471 112.452 26.8125C111.988 28.562 111.698 30.0783 111.814 30.1366C111.93 30.2532 112.858 29.0286 113.903 27.3957C116.049 24.0133 120.982 19.3481 122.896 18.8815C125.218 18.2984 126.378 18.8232 126.262 20.3978C126.146 21.2142 124.057 26.0543 121.504 31.1862C116.746 40.7501 115.644 43.7244 115.644 47.1651C115.644 48.273 115.469 49.0312 115.295 48.7978C115.121 48.6229 114.947 46.9317 115.005 45.0073C115.063 39.0589 118.487 29.9034 122.955 23.3718C124.405 21.3308 125.392 19.523 125.218 19.3481C124.753 18.8815 118.603 25.4713 114.367 31.0113C111.001 35.3268 109.783 36.2598 109.029 35.0352C108.797 34.7435 109.609 31.8278 110.769 28.562C114.135 19.0564 112.394 20.0479 106.533 31.0113C104.677 34.452 102.878 37.3095 102.472 37.3095C101.369 37.3095 100.499 35.1518 100.905 33.4024C101.079 32.4693 102.298 28.3871 103.574 24.1883C104.967 19.5813 105.721 16.0823 105.489 15.1493C105.257 14.0413 105.315 13.9247 105.779 14.566C106.069 15.0327 106.359 16.1989 106.359 17.1903ZM131.891 14.8578C132.703 15.8491 132.413 17.5403 129.802 25.5296C127.771 31.7695 127.423 34.0439 128.409 34.6852C129.221 35.2101 131.716 32.2944 132.529 29.9034C132.877 28.7954 133.051 26.9876 132.935 25.8794C132.761 24.5966 132.935 23.8967 133.399 23.8967C133.806 23.8967 135.604 22.7305 137.519 21.3308C141.813 18.1233 143.206 17.4237 144.308 17.8318C145.701 18.3568 145.469 19.2315 142.626 25.9961C139.666 32.994 138.854 35.9683 139.492 37.6012C140.246 39.5256 140.072 39.8754 138.854 38.7674C136.184 36.3181 136.823 31.0696 140.653 24.3634C141.929 22.0889 142.799 20.1062 142.683 19.9896C142.509 19.8145 140.885 20.631 139.028 21.7974C137.171 22.9637 135.314 23.8967 134.966 23.8967C134.502 23.8967 134.386 24.8881 134.618 27.1042C135.024 30.953 133.631 35.1518 131.6 36.493C129.628 37.7761 127.191 37.3095 126.146 35.4434C125.044 33.4607 125.74 30.5449 129.047 23.1386C131.368 18.0067 131.891 14.9161 130.614 14.3911C130.405 14.2861 130.278 14.2047 130.239 14.147C130.191 14.0766 130.275 14.0413 130.498 14.0413C130.846 13.983 131.484 14.3911 131.891 14.8578ZM100.557 16.024C101.137 16.7822 100.905 17.7152 99.2801 21.4474C95.3345 30.1366 94.1738 35.6766 95.5665 39.5839C96.2049 41.5083 96.2049 41.8583 95.6248 41.3917C93.768 39.8754 93.1874 31.8861 94.5801 27.454C94.7544 26.9291 94.0578 27.979 93.0136 29.7285C88.8937 37.0762 86.6307 39.1756 84.2516 37.8927C83.4394 37.4261 83.1491 36.6681 83.2074 34.8018C83.2074 32.5859 84.1355 29.2618 84.3098 30.6032C85.0059 35.4434 85.2962 35.91 86.6889 34.6269C88.2554 33.2274 93.5937 25.063 95.5665 21.0976L97.0752 18.065H95.3927C93.2456 18.065 90.6923 17.132 90.6923 16.3155C90.6923 15.9657 91.2728 15.8491 92.0272 16.024C92.7233 16.1406 94.232 16.0823 95.3345 15.7908C98.4097 14.9744 99.7446 15.091 100.557 16.024ZM159.975 16.7822C160.149 17.0154 159.395 19.8145 158.292 22.9637C156.029 29.5533 155.217 35.3268 156.261 37.3678C156.583 38.0428 156.742 38.3781 156.703 38.4035C156.664 38.4285 156.432 38.1515 155.971 37.6012C155.159 36.6098 155.043 35.4434 155.275 30.4866L155.565 24.48L153.824 25.9377C152.896 26.7542 151.503 27.5706 150.691 27.7455C149.937 27.9207 149.298 28.562 149.298 29.0869C149.298 30.4281 146.571 36.1432 145.933 36.1432C145.585 36.1432 145.41 34.6269 145.469 32.7608C145.469 30.953 145.294 28.7371 145.005 27.8038C144.598 26.3461 144.656 26.2295 146.049 26.2295C147.383 26.2295 147.616 25.8794 148.428 22.8471C150.169 16.6656 150.459 16.3155 150.227 20.8059C150.053 23.1386 150.169 25.063 150.459 25.063C150.749 25.063 152.722 23.0803 154.927 20.6893C158.873 16.3155 159.453 15.9074 159.975 16.7822ZM11.2554 12.6416C5.80105 15.3825 0.288423 27.8038 1.91317 33.8688C3.47969 39.6422 9.3404 37.4261 14.3889 29.2035L15.9554 26.6376L13.2282 26.9291C11.3714 27.1625 9.97872 27.8038 8.70204 28.912C7.36756 30.0783 7.25154 30.1366 8.18015 29.1452L9.4564 27.6872L7.30976 27.1042C5.85884 26.6959 5.04665 26.1127 4.93063 25.3547C4.81461 24.48 4.87241 24.4215 5.2787 24.9464C5.62677 25.4713 6.78745 25.6462 8.64424 25.5296L11.4874 25.3547L13.6345 21.0976C15.8976 16.7822 16.4195 13.633 15.1432 12.3501C14.2146 11.4171 13.6345 11.4754 11.2554 12.6416ZM19.9597 24.6549C19.3792 25.1798 19.3214 25.1215 19.6694 24.3051C19.8432 23.7218 20.1917 23.4303 20.3656 23.6052C20.5398 23.7801 20.3656 24.2468 19.9597 24.6549ZM28.3733 24.7715C27.851 26.2878 27.967 26.6378 28.6631 25.4713C29.0116 24.8883 29.1854 24.2468 29.0116 24.1302C28.9577 24.049 28.8667 24.068 28.7613 24.1639C28.6389 24.2752 28.4978 24.4898 28.3733 24.7715Z" fill="white"/>
<path fill-rule="evenodd" clip-rule="evenodd" d="M85.3317 17.2486C87.7108 10.2506 88.6972 4.4191 87.9429 1.50314C87.5366 -0.129539 86.3764 -0.479566 85.3899 0.686692C85.0997 1.09502 84.5196 3.01942 84.1133 4.94382C83.3011 8.90944 80.69 16.7239 78.4847 21.6806C77.1502 24.7715 76.9181 24.9464 74.7711 25.1796C73.5526 25.2964 72.508 25.2964 72.508 25.2381C72.508 25.1213 73.2624 23.6635 74.191 21.9723C78.0788 14.9744 77.9623 11.0671 73.7847 11.0671C68.0983 11.0671 61.8896 19.4064 60.3808 29.0869C59.7425 33.0523 60.4386 36.0849 62.3536 37.7178C66.1833 41.1002 71.3478 38.1259 76.9181 29.3784C78.0788 27.5706 79.0652 26.2295 79.239 26.3461C79.355 26.4627 78.6589 29.7285 77.6725 33.5773C76.2798 39.1173 75.9317 41.45 76.1056 45.2988C76.2798 49.381 76.454 50.2558 77.6725 51.5388C78.4847 52.3553 79.355 53.0549 79.7031 52.9966C80.0516 52.9966 79.9934 52.8217 79.5871 52.6468C77.2084 51.7137 76.5118 46.1152 78.0206 39.8754C79.007 35.6183 81.7342 27.2791 82.3143 26.6376C82.5467 26.4044 82.9382 26.39 83.8085 26.7398C83.8085 26.7398 85.8026 27.7968 85.9845 27.454C86.1664 27.1113 84.745 26.0837 84.3098 25.865C83.8746 25.6464 82.9526 24.8298 82.9526 24.6549C82.9526 24.5135 83.673 22.3143 84.6237 19.4126L85.3317 17.2486ZM71.4056 12.6416C65.9512 15.3825 60.4386 27.8038 62.0634 33.8688C63.6299 39.6422 69.4905 37.4261 74.539 29.2035L76.1056 26.6376L73.3784 26.9291C71.5216 27.1625 70.1289 27.8038 68.8522 28.912C67.5177 30.0783 67.4017 30.1366 68.3303 29.1452L69.6066 27.6872L67.4599 27.1042C66.009 26.6959 65.1968 26.1127 65.0808 25.3547C64.9648 24.48 65.0226 24.4215 65.4289 24.9464C65.777 25.4713 66.9376 25.6462 68.7944 25.5296L71.6376 25.3547L73.7847 21.0976C76.0478 16.7822 76.5696 13.633 75.2934 12.3501C74.3648 11.4171 73.7847 11.4754 71.4056 12.6416ZM80.1098 24.6549C79.5293 25.1798 79.4715 25.1215 79.8196 24.3051C79.9934 23.7218 80.3419 23.4303 80.5157 23.6052C80.69 23.7801 80.5157 24.2468 80.1098 24.6549Z" fill="white"/>
</svg>
