<svg width="28" height="28" viewBox="0 0 28 28" fill="none" xmlns="http://www.w3.org/2000/svg">
<path d="M23.9551 21.8636C23.9551 21.8636 22.6033 23.1913 22.2721 23.5806C21.7324 24.1564 21.0966 24.4283 20.2631 24.4283C20.183 24.4283 20.0975 24.4283 20.0173 24.423C18.4305 24.3217 16.9558 23.7032 15.8498 23.1753C12.8257 21.7143 10.1702 19.6402 7.96357 17.0114C6.14162 14.82 4.92342 12.7938 4.11663 10.6183C3.61973 9.29062 3.43807 8.2562 3.51821 7.28043C3.57164 6.65658 3.81208 6.13937 4.25554 5.69681L6.0775 3.87858C6.33931 3.6333 6.61714 3.5 6.88963 3.5C7.22624 3.5 7.49873 3.70262 7.66971 3.87324C7.67505 3.87858 7.6804 3.88391 7.68574 3.88924C8.01166 4.19317 8.32155 4.50776 8.64747 4.84368C8.81311 5.01431 8.98408 5.18493 9.15506 5.36089L10.6137 6.81654C11.18 7.38174 11.18 7.90428 10.6137 8.46948C10.4587 8.62411 10.3091 8.77874 10.1542 8.92804C9.70539 9.3866 10.058 9.03475 9.59311 9.45065C9.58243 9.46132 9.57174 9.46665 9.5664 9.47731C9.1069 9.93587 9.19239 10.3838 9.28856 10.6877C9.29391 10.7037 9.29925 10.7197 9.30459 10.7357C9.68394 11.6528 10.2182 12.5166 11.0304 13.5457L11.0357 13.551C12.5104 15.3639 14.0652 16.7769 15.7803 17.8593C15.9993 17.9979 16.2238 18.1099 16.4375 18.2166C16.6298 18.3125 16.8115 18.4032 16.9664 18.4992C16.9878 18.5098 17.0092 18.5258 17.0305 18.5365C17.2122 18.6271 17.3832 18.6698 17.5595 18.6698C18.003 18.6698 18.2808 18.3925 18.3716 18.3019L19.4189 17.2567C19.6006 17.0754 19.8891 16.8568 20.2257 16.8568C20.557 16.8568 20.8295 17.0648 20.9951 17.2461C21.0004 17.2514 21.0004 17.2514 21.0058 17.2567L23.9498 20.1947C24.5001 20.7386 23.9551 21.8636 23.9551 21.8636Z" stroke="#239385" stroke-width="2" stroke-linecap="round" stroke-linejoin="round"/>
</svg>
