<svg width="647" height="696" viewBox="0 0 647 696" fill="none" xmlns="http://www.w3.org/2000/svg">
<g opacity="0.1">
<path d="M221.285 350.776C227.755 342.479 232.351 332.718 234.727 322.225C238.982 303.606 236.118 284.272 226.663 267.778C217.207 251.284 202.288 239.607 184.666 234.904C167.043 230.201 148.811 233.021 133.337 242.858C117.863 252.694 107.001 268.364 102.746 286.981C98.4916 305.599 101.355 324.934 110.81 341.428C120.266 357.922 135.18 369.596 152.807 374.302C170.434 379.009 188.662 376.185 204.136 366.349C210.646 362.222 216.443 356.957 221.285 350.776ZM138.406 251.706C151.663 243.279 167.28 240.86 182.381 244.892C197.482 248.924 210.262 258.927 218.365 273.053C235.087 302.223 226.434 340.11 199.063 357.504C185.807 365.931 170.188 368.35 155.088 364.319C139.988 360.287 127.208 350.284 119.105 336.157C111.001 322.031 108.551 305.46 112.196 289.51C115.841 273.56 125.149 260.134 138.402 251.704L138.406 251.706Z" fill="url(#paint0_linear_100_201)"/>
<path d="M528.15 439.124C530.044 436.701 531.835 434.171 533.523 431.533C562.142 386.785 550.798 325.327 508.234 294.534C465.67 263.741 407.754 275.094 379.134 319.84C350.514 364.587 361.858 426.046 404.423 456.839C425.042 471.756 449.827 477.339 474.21 472.559C495.625 468.361 514.481 456.614 528.15 439.124ZM392.016 318.881C404.253 303.223 421.138 292.7 440.317 288.941C462.15 284.66 484.341 289.665 502.807 303.017C540.922 330.592 551.081 385.625 525.45 425.693C513.036 445.103 494.173 458.15 472.338 462.431C450.503 466.711 428.314 461.706 409.847 448.352C371.732 420.778 361.574 365.746 387.204 325.677C388.714 323.316 390.318 321.05 392.016 318.881Z" fill="url(#paint1_linear_100_201)"/>
<path d="M349.396 381.241C357.886 370.378 364.049 357.543 367.391 343.419C373.334 318.314 369.665 292.152 357.059 269.757C331.039 223.529 274.573 207.929 231.196 234.992C187.813 262.06 173.699 321.686 199.728 367.922C212.328 390.314 232.363 406.263 256.136 412.829C279.909 419.396 304.573 415.791 325.583 402.687C334.64 397.054 342.696 389.799 349.396 381.241ZM236.198 243.881C274.976 219.686 325.452 233.626 348.717 274.956C359.986 294.979 363.267 318.366 357.952 340.81C352.638 363.255 339.365 382.071 320.58 393.79C281.802 417.985 231.326 404.045 208.061 362.715C184.796 321.384 197.416 268.078 236.194 243.883L236.198 243.881Z" fill="url(#paint2_linear_100_201)"/>
<path d="M518.504 329.673C544.434 296.496 552.105 249.207 534.536 206.746C509.663 146.624 443.455 118.625 386.951 144.325C330.447 170.025 304.721 239.839 329.597 299.955C341.643 329.074 363.632 351.613 391.51 363.399C419.388 375.184 449.809 374.826 477.177 362.382C493.228 355.106 507.388 343.898 518.504 329.673ZM353.048 183.666C363.095 170.811 375.951 160.58 390.871 153.795C442.461 130.326 502.92 155.898 525.636 210.794C548.352 265.691 524.857 329.442 473.263 352.907C448.268 364.274 420.49 364.601 395.033 353.84C369.576 343.078 349.5 322.5 338.496 295.907C327.492 269.315 326.882 239.888 336.774 213.046C340.687 202.386 346.18 192.469 353.048 183.666Z" fill="url(#paint3_linear_100_201)"/>
<path d="M391.954 426.505C396.876 420.205 400.438 412.835 402.394 404.902C409.932 374.486 392.629 342.98 363.825 334.67C335.021 326.359 305.456 344.345 297.918 374.761C296.104 382.002 295.667 389.568 296.634 397.02C297.601 404.473 299.952 411.664 303.55 418.179C310.836 431.444 322.529 440.972 336.486 444.992C357.532 451.065 378.985 443.099 391.954 426.505ZM315.886 359.762C326.52 346.156 344.107 339.627 361.364 344.602C384.98 351.418 399.169 377.253 392.983 402.192C391.512 408.131 388.947 413.693 385.434 418.559C381.922 423.426 377.532 427.502 372.514 430.554C367.496 433.606 361.949 435.575 356.189 436.349C350.43 437.123 344.57 436.685 338.946 435.062C331.768 432.993 325.178 429.051 319.78 423.6C314.381 418.149 310.349 411.363 308.053 403.867C305.757 396.37 305.27 388.402 306.639 380.696C308.007 372.99 311.186 365.793 315.883 359.766L315.886 359.762Z" fill="url(#paint4_linear_100_201)"/>
<path d="M298.004 503.795C319.596 476.167 330.015 438.987 323.641 400.715C312.051 331.17 249.288 283.97 183.74 295.495C151.987 301.079 124.319 319.451 105.838 347.218C87.3571 374.984 80.2688 408.835 85.8836 442.526C97.4732 512.071 160.235 559.27 225.784 547.746C255.258 542.563 280.363 526.367 298.004 503.795ZM314.068 402.395C324.725 466.338 284.363 526.984 224.094 537.581C163.825 548.177 106.12 504.782 95.4621 440.838C90.3032 409.865 96.8154 378.742 113.809 353.209C130.804 327.675 156.24 310.786 185.439 305.656C245.707 295.058 303.41 338.458 314.068 402.402L314.068 402.395Z" fill="url(#paint5_linear_100_201)"/>
</g>
<defs>
<linearGradient id="paint0_linear_100_201" x1="204.385" y1="365.499" x2="128.212" y2="245.911" gradientUnits="userSpaceOnUse">
<stop stop-color="white" stop-opacity="0"/>
<stop offset="0.16" stop-color="white" stop-opacity="0.2"/>
<stop offset="0.51" stop-color="white" stop-opacity="0.4"/>
<stop offset="1" stop-color="white"/>
</linearGradient>
<linearGradient id="paint1_linear_100_201" x1="533.325" y1="430.066" x2="373.221" y2="328.189" gradientUnits="userSpaceOnUse">
<stop stop-color="white" stop-opacity="0"/>
<stop offset="0.16" stop-color="white" stop-opacity="0.2"/>
<stop offset="0.51" stop-color="white" stop-opacity="0.4"/>
<stop offset="1" stop-color="white"/>
</linearGradient>
<linearGradient id="paint2_linear_100_201" x1="325.834" y1="403.242" x2="223.902" y2="239.842" gradientUnits="userSpaceOnUse">
<stop stop-color="white" stop-opacity="0"/>
<stop offset="0.16" stop-color="white" stop-opacity="0.2"/>
<stop offset="0.51" stop-color="white" stop-opacity="0.4"/>
<stop offset="1" stop-color="white"/>
</linearGradient>
<linearGradient id="paint3_linear_100_201" x1="329.623" y1="300.174" x2="537.639" y2="214.075" gradientUnits="userSpaceOnUse">
<stop stop-color="white" stop-opacity="0"/>
<stop offset="0.16" stop-color="white" stop-opacity="0.2"/>
<stop offset="0.51" stop-color="white" stop-opacity="0.4"/>
<stop offset="1" stop-color="white"/>
</linearGradient>
<linearGradient id="paint4_linear_100_201" x1="363.714" y1="335.254" x2="332.125" y2="444.758" gradientUnits="userSpaceOnUse">
<stop stop-color="white" stop-opacity="0"/>
<stop offset="0.16" stop-color="white" stop-opacity="0.2"/>
<stop offset="0.51" stop-color="white" stop-opacity="0.4"/>
<stop offset="1" stop-color="white"/>
</linearGradient>
<linearGradient id="paint5_linear_100_201" x1="86.2598" y1="441.843" x2="324.063" y2="402.208" gradientUnits="userSpaceOnUse">
<stop stop-color="white" stop-opacity="0"/>
<stop offset="0.16" stop-color="white" stop-opacity="0.2"/>
<stop offset="0.51" stop-color="white" stop-opacity="0.4"/>
<stop offset="1" stop-color="white"/>
</linearGradient>
</defs>
</svg>
