<svg width="647" height="696" viewBox="0 0 647 696" fill="none" xmlns="http://www.w3.org/2000/svg">
<g opacity="0.1">
<path d="M424.936 350.776C418.466 342.479 413.87 332.718 411.494 322.225C407.239 303.606 410.103 284.272 419.558 267.778C429.014 251.284 443.933 239.607 461.555 234.904C479.178 230.201 497.41 233.021 512.884 242.858C528.358 252.694 539.22 268.364 543.475 286.981C547.729 305.599 544.866 324.934 535.411 341.428C525.955 357.922 511.041 369.596 493.414 374.302C475.787 379.009 457.559 376.185 442.085 366.349C435.575 362.222 429.778 356.957 424.936 350.776ZM507.815 251.706C494.558 243.279 478.941 240.86 463.84 244.892C448.739 248.924 435.96 258.927 427.856 273.053C411.134 302.223 419.787 340.11 447.158 357.504C460.414 365.931 476.033 368.35 491.133 364.319C506.233 360.287 519.013 350.284 527.117 336.157C535.22 322.031 537.67 305.46 534.025 289.51C530.38 273.56 521.072 260.134 507.819 251.704L507.815 251.706Z" fill="url(#paint0_linear_100_214)"/>
<path d="M118.071 439.124C116.178 436.701 114.386 434.171 112.698 431.533C84.0791 386.785 95.4226 325.327 137.987 294.534C180.551 263.741 238.467 275.094 267.087 319.84C295.707 364.587 284.363 426.046 241.798 456.839C221.179 471.756 196.395 477.339 172.011 472.559C150.596 468.361 131.74 456.614 118.071 439.124ZM254.205 318.881C241.968 303.223 225.083 292.7 205.904 288.941C184.071 284.66 161.88 289.665 143.414 303.017C105.299 330.592 95.1404 385.625 120.771 425.693C133.185 445.103 152.048 458.15 173.883 462.431C195.718 466.711 217.907 461.706 236.374 448.352C274.489 420.778 284.647 365.746 259.017 325.677C257.507 323.316 255.903 321.05 254.205 318.881Z" fill="url(#paint1_linear_100_214)"/>
<path d="M296.825 381.241C288.335 370.378 282.172 357.543 278.831 343.419C272.887 318.314 276.556 292.152 289.162 269.757C315.182 223.529 371.648 207.929 415.025 234.992C458.408 262.06 472.522 321.686 446.493 367.922C433.893 390.314 413.858 406.263 390.085 412.829C366.312 419.396 341.648 415.791 320.638 402.687C311.581 397.054 303.525 389.799 296.825 381.241ZM410.023 243.881C371.245 219.686 320.769 233.626 297.504 274.956C286.235 294.979 282.954 318.366 288.269 340.81C293.584 363.255 306.856 382.071 325.641 393.79C364.42 417.985 414.895 404.045 438.16 362.715C461.425 321.384 448.805 268.078 410.027 243.883L410.023 243.881Z" fill="url(#paint2_linear_100_214)"/>
<path d="M127.717 329.673C101.787 296.496 94.1161 249.207 111.685 206.746C136.558 146.624 202.766 118.625 259.27 144.325C315.774 170.025 341.5 239.839 316.625 299.955C304.578 329.074 282.589 351.613 254.711 363.399C226.833 375.184 196.412 374.826 169.044 362.382C152.993 355.106 138.833 343.898 127.717 329.673ZM293.173 183.666C283.126 170.811 270.27 160.58 255.35 153.795C203.76 130.326 143.301 155.898 120.585 210.794C97.8692 265.691 121.364 329.442 172.959 352.907C197.953 364.274 225.731 364.601 251.188 353.84C276.645 343.078 296.721 322.5 307.725 295.907C318.729 269.315 319.34 239.888 309.447 213.046C305.534 202.386 300.041 192.469 293.173 183.666Z" fill="url(#paint3_linear_100_214)"/>
<path d="M254.267 426.505C249.345 420.205 245.783 412.835 243.827 404.902C236.289 374.486 253.592 342.98 282.396 334.67C311.2 326.359 340.766 344.345 348.303 374.761C350.117 382.002 350.554 389.568 349.587 397.02C348.62 404.473 346.27 411.664 342.671 418.179C335.385 431.444 323.693 440.972 309.736 444.992C288.689 451.065 267.236 443.099 254.267 426.505ZM330.335 359.762C319.701 346.156 302.114 339.627 284.857 344.602C261.241 351.418 247.052 377.253 253.238 402.192C254.71 408.131 257.275 413.693 260.787 418.559C264.299 423.426 268.689 427.502 273.707 430.554C278.725 433.606 284.272 435.575 290.032 436.349C295.791 437.123 301.651 436.685 307.275 435.062C314.453 432.993 321.043 429.051 326.442 423.6C331.84 418.149 335.872 411.363 338.168 403.867C340.464 396.37 340.951 388.402 339.582 380.696C338.214 372.99 335.035 365.793 330.338 359.766L330.335 359.762Z" fill="url(#paint4_linear_100_214)"/>
<path d="M348.217 503.795C326.625 476.167 316.206 438.987 322.581 400.715C334.17 331.17 396.933 283.97 462.481 295.495C494.234 301.079 521.902 319.451 540.383 347.218C558.864 374.984 565.952 408.835 560.338 442.526C548.748 512.071 485.986 559.27 420.437 547.746C390.963 542.563 365.858 526.367 348.217 503.795ZM332.153 402.395C321.496 466.338 361.858 526.984 422.127 537.581C482.396 548.177 540.101 504.782 550.759 440.838C555.918 409.865 549.406 378.742 532.412 353.209C515.417 327.675 489.981 310.786 460.782 305.656C400.514 295.058 342.811 338.458 332.153 402.402L332.153 402.395Z" fill="url(#paint5_linear_100_214)"/>
</g>
<defs>
<linearGradient id="paint0_linear_100_214" x1="441.836" y1="365.499" x2="518.009" y2="245.911" gradientUnits="userSpaceOnUse">
<stop stop-color="white" stop-opacity="0"/>
<stop offset="0.16" stop-color="white" stop-opacity="0.2"/>
<stop offset="0.51" stop-color="white" stop-opacity="0.4"/>
<stop offset="1" stop-color="white"/>
</linearGradient>
<linearGradient id="paint1_linear_100_214" x1="112.896" y1="430.066" x2="273" y2="328.189" gradientUnits="userSpaceOnUse">
<stop stop-color="white" stop-opacity="0"/>
<stop offset="0.16" stop-color="white" stop-opacity="0.2"/>
<stop offset="0.51" stop-color="white" stop-opacity="0.4"/>
<stop offset="1" stop-color="white"/>
</linearGradient>
<linearGradient id="paint2_linear_100_214" x1="320.387" y1="403.242" x2="422.319" y2="239.842" gradientUnits="userSpaceOnUse">
<stop stop-color="white" stop-opacity="0"/>
<stop offset="0.16" stop-color="white" stop-opacity="0.2"/>
<stop offset="0.51" stop-color="white" stop-opacity="0.4"/>
<stop offset="1" stop-color="white"/>
</linearGradient>
<linearGradient id="paint3_linear_100_214" x1="316.599" y1="300.174" x2="108.582" y2="214.075" gradientUnits="userSpaceOnUse">
<stop stop-color="white" stop-opacity="0"/>
<stop offset="0.16" stop-color="white" stop-opacity="0.2"/>
<stop offset="0.51" stop-color="white" stop-opacity="0.4"/>
<stop offset="1" stop-color="white"/>
</linearGradient>
<linearGradient id="paint4_linear_100_214" x1="282.507" y1="335.254" x2="314.096" y2="444.758" gradientUnits="userSpaceOnUse">
<stop stop-color="white" stop-opacity="0"/>
<stop offset="0.16" stop-color="white" stop-opacity="0.2"/>
<stop offset="0.51" stop-color="white" stop-opacity="0.4"/>
<stop offset="1" stop-color="white"/>
</linearGradient>
<linearGradient id="paint5_linear_100_214" x1="559.961" y1="441.843" x2="322.158" y2="402.208" gradientUnits="userSpaceOnUse">
<stop stop-color="white" stop-opacity="0"/>
<stop offset="0.16" stop-color="white" stop-opacity="0.2"/>
<stop offset="0.51" stop-color="white" stop-opacity="0.4"/>
<stop offset="1" stop-color="white"/>
</linearGradient>
</defs>
</svg>
