<svg width="32" height="30" viewBox="0 0 32 30" fill="none" xmlns="http://www.w3.org/2000/svg">
<path d="M15.313 29C7.50016 29 1.16663 22.732 1.16663 15C1.16663 7.26801 7.50016 1 15.313 1C21.2498 1 26.3324 4.6193 28.431 9.75M2.93492 20.25H7.06094C8.68861 20.25 10.0081 18.9442 10.0081 17.3333V13.5417C10.0081 11.9308 11.3276 10.625 12.9552 10.625H15.9024C17.5301 10.625 18.8496 9.31917 18.8496 7.70834V2.75M24.5081 20.6V20.4947M30.1666 20.4783C30.1666 24.1304 24.5081 29 24.5081 29C24.5081 29 18.8496 24.1304 18.8496 20.4783C18.8496 17.4527 21.383 15 24.5081 15C27.6332 15 30.1666 17.4527 30.1666 20.4783Z" stroke="black" stroke-width="2" stroke-linecap="round" stroke-linejoin="round"/>
</svg>
