<svg width="1068" height="500" viewBox="0 0 1068 500" fill="none" xmlns="http://www.w3.org/2000/svg">
<path d="M706.305 290.137C684.488 290.114 662.96 285.15 643.336 275.617C608.463 258.766 582.243 229.347 569.499 192.772C556.755 156.198 559.02 116.844 575.871 81.9847C592.722 47.1257 622.142 20.8923 658.716 8.14827C695.29 -4.59574 734.633 -2.33072 769.504 14.5203C804.374 31.3713 830.596 60.7907 843.34 97.365C856.084 133.939 853.819 173.282 836.968 208.153C820.117 243.023 790.698 269.245 754.124 281.989C738.753 287.366 722.588 290.12 706.305 290.137ZM665.557 27.7622C634.224 38.6815 609.018 61.1476 594.582 91.0217C580.145 120.896 578.206 154.607 589.113 185.94C611.651 250.621 682.607 284.922 747.294 262.372C778.627 251.456 803.833 228.987 818.27 199.116C832.706 169.244 834.646 135.531 823.738 104.197C812.83 72.8641 790.352 47.6582 760.478 33.2219C730.604 18.7855 696.894 16.8457 665.56 27.7536L665.557 27.7622Z" fill="url(#paint0_linear_100_22)"/>
<path d="M396.189 838.288C389.811 838.288 383.408 837.983 376.978 837.373C267.923 826.975 187.654 729.794 198.05 620.739C208.445 511.684 305.631 431.415 414.684 441.808C523.739 452.203 604.008 549.387 593.612 658.442C588.575 711.271 563.269 758.978 522.351 792.772C486.416 822.453 442.221 838.288 396.189 838.288ZM395.51 461.666C354.299 461.666 314.717 475.841 282.535 502.422C245.897 532.682 223.247 575.404 218.726 622.708C209.418 720.363 281.295 807.387 378.95 816.688C426.253 821.198 472.486 807.015 509.127 776.753C545.767 746.49 568.415 703.771 572.933 656.464C582.244 558.809 510.367 471.789 412.712 462.484C406.956 461.935 401.222 461.663 395.51 461.666Z" fill="url(#paint1_linear_100_22)"/>
<path d="M550.219 469.796C521.629 469.796 493.156 463.464 466.546 450.867C419.239 428.481 383.479 389.012 365.857 339.731C329.479 238.012 382.645 125.639 484.375 89.26C586.123 52.8786 698.471 106.048 734.849 207.793C752.474 257.059 749.85 310.251 727.464 357.561C705.079 404.87 665.609 440.627 616.343 458.252C595.129 465.871 572.76 469.776 550.219 469.796ZM491.372 108.816C400.425 141.338 352.892 241.782 385.414 332.729C401.171 376.786 433.137 412.071 475.43 432.082C517.723 452.093 565.28 454.439 609.335 438.684C700.281 406.162 747.815 305.718 715.293 214.772C682.771 123.825 582.327 76.2944 491.38 108.813L491.372 108.816Z" fill="url(#paint2_linear_100_22)"/>
<path d="M239.499 681.359C152.179 681.359 67.9099 633.426 25.8098 550.356C-33.809 432.742 13.391 288.563 131.011 228.956C248.631 169.348 392.805 216.546 452.409 334.157C481.284 391.122 486.255 455.942 466.373 516.646C446.492 577.35 404.184 626.682 347.222 655.558C313.847 672.522 276.938 681.362 239.499 681.359ZM238.886 223.79C205.052 223.79 171.456 231.745 140.399 247.485C33.002 301.903 -10.0939 433.568 44.3358 540.968C98.7655 648.368 230.422 691.461 337.819 637.032C389.846 610.663 428.478 565.616 446.633 510.185C464.787 454.753 460.249 395.572 433.883 343.545C407.517 291.519 362.467 252.878 307.036 234.735C285.041 227.504 262.039 223.809 238.886 223.79Z" fill="url(#paint3_linear_100_22)"/>
<path d="M565.01 549.952C548.431 549.95 532.049 546.352 516.995 539.407C459.221 512.837 433.837 444.215 460.407 386.441C486.977 328.667 555.598 303.283 613.372 329.853C627.154 336.146 639.551 345.109 649.846 356.224C660.14 367.34 668.129 380.386 673.348 394.609C684.034 423.502 682.846 454.827 669.961 482.813C650.548 525.028 608.684 549.952 565.01 549.952ZM565.326 340.076C529.515 340.076 495.197 360.51 479.272 395.119C457.491 442.489 478.305 498.76 525.684 520.535C536.965 525.725 549.158 528.641 561.567 529.117C573.975 529.594 586.356 527.622 598.002 523.313C609.648 519.005 620.332 512.445 629.442 504.007C638.553 495.57 645.913 485.42 651.101 474.138C657.723 459.743 660.622 443.914 659.53 428.107C658.438 412.299 653.39 397.019 644.851 383.671C636.312 370.323 624.555 359.336 610.661 351.718C596.766 344.101 581.18 340.097 565.335 340.076H565.326Z" fill="url(#paint4_linear_100_22)"/>
<path d="M810.453 542.637C737.739 542.637 665.462 512.129 614.53 452.741C521.989 344.814 534.52 181.712 642.447 89.1711C694.732 44.3425 761.35 22.5586 830.012 27.8283C898.674 33.098 961.188 64.7968 1006.02 117.082C1098.56 225.009 1086.03 388.108 978.102 480.652C929.57 522.263 869.862 542.637 810.453 542.637ZM630.287 439.223C715.374 538.458 865.334 549.973 964.57 464.883C1063.8 379.794 1075.33 229.839 990.242 130.601C949.022 82.5372 891.553 53.3854 828.415 48.5387C765.276 43.6921 704.031 63.7205 655.959 104.949C556.724 190.035 545.212 339.993 630.298 439.231L630.287 439.223Z" fill="url(#paint5_linear_100_22)"/>
<defs>
<linearGradient id="paint0_linear_100_22" x1="752.458" y1="281.31" x2="657.553" y2="8.16875" gradientUnits="userSpaceOnUse">
<stop stop-color="white" stop-opacity="0"/>
<stop offset="0.16" stop-color="white" stop-opacity="0.2"/>
<stop offset="0.51" stop-color="white" stop-opacity="0.4"/>
<stop offset="1" stop-color="white"/>
</linearGradient>
<linearGradient id="paint1_linear_100_22" x1="374.962" y1="835.172" x2="413.509" y2="440.631" gradientUnits="userSpaceOnUse">
<stop stop-color="white" stop-opacity="0"/>
<stop offset="0.16" stop-color="white" stop-opacity="0.2"/>
<stop offset="0.51" stop-color="white" stop-opacity="0.4"/>
<stop offset="1" stop-color="white"/>
</linearGradient>
<linearGradient id="paint2_linear_100_22" x1="616.862" y1="459.373" x2="484.651" y2="89.7132" gradientUnits="userSpaceOnUse">
<stop stop-color="white" stop-opacity="0"/>
<stop offset="0.16" stop-color="white" stop-opacity="0.2"/>
<stop offset="0.51" stop-color="white" stop-opacity="0.4"/>
<stop offset="1" stop-color="white"/>
</linearGradient>
<linearGradient id="paint3_linear_100_22" x1="452.715" y1="334.48" x2="25.8576" y2="550.756" gradientUnits="userSpaceOnUse">
<stop stop-color="white" stop-opacity="0"/>
<stop offset="0.16" stop-color="white" stop-opacity="0.2"/>
<stop offset="0.51" stop-color="white" stop-opacity="0.4"/>
<stop offset="1" stop-color="white"/>
</linearGradient>
<linearGradient id="paint4_linear_100_22" x1="461.471" y1="387.007" x2="671.742" y2="483.721" gradientUnits="userSpaceOnUse">
<stop stop-color="white" stop-opacity="0"/>
<stop offset="0.16" stop-color="white" stop-opacity="0.2"/>
<stop offset="0.51" stop-color="white" stop-opacity="0.4"/>
<stop offset="1" stop-color="white"/>
</linearGradient>
<linearGradient id="paint5_linear_100_22" x1="1004.44" y1="116.824" x2="613.457" y2="452.053" gradientUnits="userSpaceOnUse">
<stop stop-color="white" stop-opacity="0"/>
<stop offset="0.16" stop-color="white" stop-opacity="0.2"/>
<stop offset="0.51" stop-color="white" stop-opacity="0.4"/>
<stop offset="1" stop-color="white"/>
</linearGradient>
</defs>
</svg>
