<svg width="1508" height="768" viewBox="0 0 1508 768" fill="none" xmlns="http://www.w3.org/2000/svg">
<path fill-rule="evenodd" clip-rule="evenodd" d="M0.402586 995.344L7.50121 957.924C29.415 842.409 64.2203 731.581 133.348 639.383C202.936 546.57 305.842 454.966 462 414.498C719.312 347.817 991.028 499.413 1245 400.498C1452.84 319.551 1517.5 152.998 1591.27 -50.7344L1645.51 -46.9819C1609.5 262.998 1450.41 533.421 1181.5 601.026C997.581 647.265 798.4 589.945 609.085 620.281C546.799 630.262 477.733 654.441 426.624 698.994C376.263 742.894 341.831 807.789 349.851 903.068L351.486 922.487L0.402586 995.344Z" fill="white"/>
</svg>
